<svg width="139" height="152" viewBox="0 0 139 152" fill="none" xmlns="http://www.w3.org/2000/svg">
  <g filter="url(#filter0_d)">
    <path
      d="M44.2182 111.126C38.2488 111.166 33.6592 116.236 34.1017 122.087C34.2551 124.116 32.7507 125.358 30.9421 126.029C29.362 126.616 29.2932 128.811 30.8148 129.536C35.9561 131.986 41.0539 131.781 45.0328 131.48C50.8836 131.038 55.2055 125.739 54.3466 119.831C53.6225 114.846 49.2559 111.093 44.2182 111.126Z"
      fill="#1E82D3"/>
    <path
      d="M52.6544 24.1929C37.2281 25.3596 27.9947 36.7105 28.983 49.7776C29.052 50.6909 29.1779 51.5865 29.3547 52.4636C29.693 54.1393 29.1431 55.8581 27.9745 57.1056C24.5375 60.7704 22.6265 65.4284 22.9991 70.3551C23.4446 76.2451 21.35 81.959 16.6887 84.1884C14.7528 85.1138 14.499 87.7869 16.1899 89.1082C27.0828 97.6199 65.2138 102.76 74.9334 77.7988C74.9334 77.7988 81.5602 67.8302 79.9036 45.9264C78.9153 32.8594 70.0955 22.8738 52.6544 24.1929Z"
      fill="#1E82D3"/>
    <path
      d="M82.0938 40.5877C79.4293 46.1302 81.8748 48.9542 85.6848 50.7855C89.4951 52.6177 93.228 52.7633 95.8916 47.2219C98.5561 41.6794 98.967 32.9145 95.1569 31.082C91.3469 29.2507 84.7574 35.0463 82.0938 40.5877Z"
      fill="#F0E4C0"/>
    <path
      d="M118.163 109.247C119.543 109.142 120.884 108.512 121.858 107.38C123.811 105.114 123.556 101.694 121.289 99.7417C113.921 93.3956 106.384 95.6117 101.396 97.0771C96.603 98.4853 96.5448 98.3832 95.5804 96.6595C94.1199 94.049 90.8193 93.1171 88.2088 94.5775C85.5984 96.038 84.6665 99.3386 86.1269 101.949C88.4273 106.059 91.6512 108.363 95.7116 108.796C98.8142 109.126 101.68 108.285 104.451 107.47C110.698 105.633 112.158 106.174 114.219 107.949C115.355 108.928 116.779 109.352 118.163 109.247Z"
      fill="#F5EBCD"/>
    <path
      d="M116.563 96.7548C118.129 97.4191 119.713 98.3827 121.29 99.7407C123.556 101.693 123.811 105.113 121.859 107.379C120.884 108.511 119.544 109.141 118.164 109.246C116.779 109.351 115.354 108.927 114.22 107.948C113.245 107.109 112.404 106.546 111.129 106.38L116.563 96.7548Z"
      fill="#495059"/>
    <path
      d="M44.6424 105.162C45.0537 110.6 47.6645 125.128 41.2875 127.666C35.346 130.031 31.9701 128.362 30.1619 128.182C25.9153 127.758 21.0256 129.279 18.4158 131.35C16.9655 132.5 16.4571 133.799 16.9748 133.35C17.8233 132.613 19.4736 132.077 21.0062 131.573C23.5608 130.734 26.8382 130.574 29.3428 131.864C35.8031 135.192 37.7543 137.439 49.1867 138.366C65.0758 139.654 81.1135 131.49 84.3333 129.462C91.2651 125.096 101.132 116.188 99.9816 100.977C98.9743 87.6581 85.7697 77.7983 70.488 78.954C55.2066 80.1098 43.6351 91.8434 44.6424 105.162Z"
      fill="#F9F1DA"/>
    <path
      d="M44.6425 105.162C45.0537 110.6 47.6645 125.128 41.2876 127.666C35.346 130.031 31.9702 128.362 30.1619 128.182C25.9153 127.758 21.0256 129.279 18.4159 131.35C16.9655 132.5 16.4571 133.799 16.9749 133.35C17.8233 132.613 19.4736 132.077 21.0062 131.573C23.5608 130.734 26.8383 130.574 29.3428 131.864C35.8031 135.192 37.7543 137.439 49.1867 138.366C65.0758 139.654 81.1135 131.49 84.3333 129.462C91.2651 125.096 101.132 116.188 99.9816 100.977C98.9743 87.6581 85.7697 77.7983 70.488 78.954C55.2067 80.1098 43.6352 91.8434 44.6425 105.162Z"
      fill="#F9F1DA"/>
    <mask id="mask0" mask-type="alpha" maskUnits="userSpaceOnUse" x="12" y="76" width="91" height="66">
      <path
        d="M44.6425 105.162C45.0537 110.6 47.6645 125.128 41.2876 127.666C35.346 130.031 31.9702 128.362 30.1619 128.182C25.9153 127.758 21.0256 129.279 18.4159 131.35C16.9655 132.5 16.4571 133.799 16.9749 133.35C17.8233 132.613 19.4736 132.077 21.0062 131.573C23.5608 130.734 26.8383 130.574 29.3428 131.864C35.8031 135.192 37.7543 137.439 49.1867 138.366C65.0758 139.654 81.1135 131.49 84.3333 129.462C91.2651 125.096 101.132 116.188 99.9816 100.977C98.9743 87.6581 85.7697 77.7983 70.488 78.954C55.2067 80.1098 43.6352 91.8434 44.6425 105.162Z"
        fill="#F9F1DA"/>
    </mask>
    <g mask="url(#mask0)">
      <path
        d="M43.4262 139.494C41.2475 139.559 10.9969 137.43 11.9725 135.508C15.5246 128.512 43.8933 114.512 43.2172 105.572C42.187 91.9521 54.0377 79.9162 69.801 78.415C63.2434 87.7349 54.9102 116.343 60.9284 139.37C60.2006 139.315 55.6155 140.721 55.0206 141.218C52.514 143.315 49.2086 139.326 43.4262 139.494Z"
        fill="#F0E4C0"/>
    </g>
    <path
      d="M119.445 50.2482C108.164 40.5535 86.6112 35.9822 62.7158 37.7894C47.0727 38.9725 35.3504 52.6127 36.5335 68.256C37.7166 83.8991 51.357 95.6204 67.0001 94.4373C84.284 93.1302 110.343 94.2023 121.764 80.9126C129.591 71.8039 128.552 58.0751 119.445 50.2482L119.445 50.2482Z"
      fill="#F9F1DA"/>
    <path
      d="M47.5945 43.5467C40.2289 49.1877 35.7687 58.3171 36.5205 68.2583C37.7036 83.9014 51.344 95.6227 66.9871 94.4396C78.6394 93.5583 94.2793 93.7577 106.734 89.9095C44.5757 99.0281 40.8514 61.6236 47.5945 43.5467Z"
      fill="#F5EBCD"/>
    <path
      d="M62.7126 58.1276C63.7361 58.0502 64.5017 57.158 64.4244 56.1357L64.2065 53.2538C64.1291 52.2303 63.238 51.4646 62.2146 51.542C61.1924 51.6193 60.4254 52.5104 60.5028 53.5339L60.7208 56.4158C60.7981 57.439 61.6904 58.2049 62.7126 58.1276Z"
      fill="#495059"/>
    <path
      d="M97.4341 55.5017C98.4563 55.4243 99.2232 54.532 99.1459 53.5098L98.9279 50.6278C98.8505 49.6044 97.9582 48.8387 96.936 48.916C95.9125 48.9934 95.1468 49.8845 95.2242 50.9079L95.4422 53.7899C95.5195 54.8131 96.4106 55.5791 97.4341 55.5017Z"
      fill="#495059"/>
    <path
      d="M82.0892 46.4598C79.5882 47.2004 76.924 47.1786 74.4361 46.397C71.9482 45.6154 69.7494 44.1094 68.1199 42.0712C67.5803 41.3951 67.2521 40.5744 67.1763 39.712C67.1006 38.8496 67.2807 37.984 67.6942 37.2235L79.8345 14.9028C80.3173 14.0147 81.0929 13.3218 82.029 12.9425C82.965 12.5633 84.0034 12.5212 84.9667 12.8235C85.93 13.1258 86.7585 13.7537 87.3106 14.6C87.8628 15.4463 88.1044 16.4584 87.9941 17.4634L85.2046 42.7233C85.1108 43.5842 84.765 44.3982 84.2107 45.063C83.6564 45.7278 82.9183 46.2138 82.0892 46.4598Z"
      fill="#00D6FF"/>
    <mask id="mask1" mask-type="alpha" maskUnits="userSpaceOnUse" x="66" y="10" width="24" height="38">
      <path
        d="M82.0892 46.4598C79.5882 47.2004 76.924 47.1786 74.4361 46.397C71.9482 45.6154 69.7494 44.1094 68.1199 42.0712C67.5803 41.3951 67.2521 40.5744 67.1763 39.712C67.1006 38.8496 67.2807 37.984 67.6942 37.2235L79.8345 14.9028C80.3173 14.0147 81.0929 13.3218 82.029 12.9425C82.965 12.5633 84.0034 12.5212 84.9667 12.8235C85.93 13.1258 86.7585 13.7537 87.3106 14.6C87.8628 15.4463 88.1044 16.4584 87.9941 17.4634L85.2046 42.7233C85.1108 43.5842 84.765 44.3982 84.2107 45.063C83.6564 45.7278 82.9183 46.2138 82.0892 46.4598Z"
        fill="#00D6FF"/>
    </mask>
    <g mask="url(#mask1)">
      <path
        d="M86.6489 10.8528C83.4678 10.0092 80.096 10.9182 78.6117 13.0192L70.9354 23.9065C76.1028 24.3703 82.8416 24.1213 91.1549 21.7983L91.7121 16.4805C91.9504 14.0522 89.8349 11.697 86.6489 10.8528Z"
        fill="#FF6862"/>
      <path
        d="M69.7928 24.4369L78.0996 12.6557C79.7239 10.3549 83.3881 9.33959 86.8095 10.2424C90.287 11.1627 92.607 13.8133 92.3171 16.5392L91.7258 22.2937L91.3135 22.4072C84.1906 24.3962 77.3121 25.1138 70.8684 24.5367L69.7928 24.4369ZM85.3728 11.2416C82.8014 10.9061 80.2914 11.7297 79.1266 13.3804L72.0793 23.3661C77.9307 23.7493 84.1423 23.0587 90.576 21.3069L91.08 16.4158C91.297 14.3066 89.3665 12.2216 86.491 11.461C86.1235 11.3634 85.75 11.2901 85.3728 11.2416V11.2416Z"
        fill="white"/>
      <path
        d="M86.9034 43.9439L87.9138 34.5904C77.2894 39.3553 69.5923 39.0128 64.7286 38.0257C64.3882 38.8402 64.2902 39.7358 64.4464 40.6046C64.6025 41.4734 65.0062 42.2784 65.6087 42.9225C69.8275 47.649 76.7339 49.686 83.0812 48.0725C85.185 47.5483 86.6913 45.9193 86.9034 43.9439Z"
        fill="#0083D7"/>
      <path
        d="M76.2403 49.1018C71.972 48.5717 68.0348 46.529 65.141 43.3433C64.4597 42.6095 64.004 41.6946 63.8284 40.7081C63.6527 39.7216 63.7645 38.7052 64.1503 37.7804L64.3523 37.2997L64.8456 37.3995C71.8053 38.8147 79.4784 37.6734 87.6503 34.0084L88.6477 33.563L87.5211 44.0017C87.2797 46.2395 85.5948 48.0734 83.2302 48.6751C80.9478 49.2575 78.5762 49.4023 76.2403 49.1018ZM65.1373 38.7535C64.9639 39.4082 64.9592 40.0963 65.1236 40.7532C65.2881 41.4101 65.6163 42.0144 66.0776 42.5096C70.164 47.0869 76.7782 49.0351 82.929 47.472C84.7803 47.0011 86.0944 45.6031 86.2784 43.8827L87.1727 35.6119C79.3324 38.9474 71.9332 40.0079 65.1373 38.7535V38.7535Z"
        fill="white"/>
    </g>
    <path
      d="M53.0837 42.7818C56.5515 47.8604 54.5586 51.0201 51.0674 53.4036C47.5762 55.7881 43.9074 56.4934 40.4397 51.4157C36.9729 46.337 35.2475 37.7336 38.7396 35.3489C42.2308 32.9654 49.617 37.704 53.0837 42.7818Z"
      fill="#F0E4C0"/>
    <path
      d="M66.1151 95.4857C61.3586 95.2075 56.3524 96.0629 51.6919 99.6099C49.311 101.421 48.8498 104.82 50.6609 107.2C52.473 109.581 55.8712 110.042 58.2512 108.23C62.351 105.111 67.6203 106.244 74.6166 108.185C76.513 108.712 78.3027 109.208 80.0572 109.541C82.9973 110.1 85.8307 108.169 86.3883 105.23C86.9469 102.291 85.0159 99.4562 82.0768 98.8988C80.7648 98.6495 79.1861 98.2114 77.5137 97.7472C74.1606 96.8166 70.2314 95.7264 66.1151 95.4857Z"
      fill="#F9F1DA"/>
    <path
      d="M99.4935 77.5171C99.2069 73.7275 101.298 70.48 104.163 70.2633C107.028 70.0466 109.583 72.9428 109.87 76.7324C110.156 80.522 108.066 83.7705 105.201 83.9872C102.336 84.2038 99.7801 81.3067 99.4935 77.5171Z"
      fill="#495059"/>
    <path
      d="M77.7686 97.8274C79.3351 98.262 80.8124 98.6652 82.0505 98.9005C84.9887 99.4578 86.9196 102.292 86.362 105.231C85.8034 108.17 82.971 110.102 80.0299 109.543C78.3654 109.227 76.666 108.763 74.8783 108.267L77.7686 97.8274Z"
      fill="#495059"/>
  </g>
  <mask id="mask2" mask-type="alpha" maskUnits="userSpaceOnUse" x="3" y="7" width="135" height="135">
    <g clip-path="url(#clip0)">
      <path
        d="M44.2182 111.126C38.2488 111.166 33.6592 116.236 34.1017 122.087C34.2551 124.116 32.7507 125.358 30.9421 126.029C29.362 126.616 29.2932 128.811 30.8148 129.536C35.9561 131.986 41.0539 131.781 45.0328 131.48C50.8836 131.038 55.2055 125.739 54.3466 119.831C53.6225 114.846 49.2559 111.093 44.2182 111.126Z"
        fill="#1E82D3"/>
      <path
        d="M52.6544 24.1929C37.2281 25.3596 27.9947 36.7105 28.983 49.7776C29.052 50.6909 29.1779 51.5865 29.3547 52.4636C29.693 54.1393 29.1431 55.8581 27.9745 57.1056C24.5375 60.7704 22.6265 65.4284 22.9991 70.3551C23.4446 76.2451 21.35 81.959 16.6887 84.1884C14.7528 85.1138 14.499 87.7869 16.1899 89.1082C27.0828 97.6199 65.2138 102.76 74.9334 77.7988C74.9334 77.7988 81.5602 67.8302 79.9036 45.9264C78.9153 32.8594 70.0955 22.8738 52.6544 24.1929Z"
        fill="#1E82D3"/>
      <path
        d="M82.0938 40.5877C79.4293 46.1302 81.8748 48.9542 85.6848 50.7855C89.4951 52.6177 93.228 52.7633 95.8916 47.2219C98.5561 41.6794 98.967 32.9145 95.1569 31.082C91.3469 29.2507 84.7574 35.0463 82.0938 40.5877Z"
        fill="#F0E4C0"/>
      <path
        d="M118.163 109.247C119.543 109.142 120.884 108.512 121.858 107.38C123.811 105.114 123.556 101.694 121.289 99.7417C113.921 93.3956 106.384 95.6117 101.396 97.0771C96.603 98.4853 96.5448 98.3832 95.5804 96.6595C94.1199 94.049 90.8193 93.1171 88.2088 94.5775C85.5984 96.038 84.6665 99.3386 86.1269 101.949C88.4273 106.059 91.6512 108.363 95.7116 108.796C98.8142 109.126 101.68 108.285 104.451 107.47C110.698 105.633 112.158 106.174 114.219 107.949C115.355 108.928 116.779 109.352 118.163 109.247Z"
        fill="#F5EBCD"/>
      <path
        d="M116.563 96.7548C118.129 97.4191 119.713 98.3827 121.29 99.7407C123.556 101.693 123.811 105.113 121.859 107.379C120.884 108.511 119.544 109.141 118.164 109.246C116.779 109.351 115.354 108.927 114.22 107.948C113.245 107.109 112.404 106.546 111.129 106.38L116.563 96.7548Z"
        fill="#495059"/>
      <path
        d="M44.6424 105.162C45.0537 110.6 47.6645 125.128 41.2875 127.666C35.346 130.031 31.9701 128.362 30.1619 128.182C25.9153 127.758 21.0256 129.279 18.4158 131.35C16.9655 132.5 16.4571 133.799 16.9748 133.35C17.8233 132.613 19.4736 132.077 21.0062 131.573C23.5608 130.734 26.8382 130.574 29.3428 131.864C35.8031 135.192 37.7543 137.439 49.1867 138.366C65.0758 139.654 81.1135 131.49 84.3333 129.462C91.2651 125.096 101.132 116.188 99.9816 100.977C98.9743 87.6581 85.7697 77.7983 70.488 78.954C55.2066 80.1098 43.6351 91.8434 44.6424 105.162Z"
        fill="#F9F1DA"/>
      <path
        d="M44.6425 105.162C45.0537 110.6 47.6645 125.128 41.2876 127.666C35.346 130.031 31.9702 128.362 30.1619 128.182C25.9153 127.758 21.0256 129.279 18.4159 131.35C16.9655 132.5 16.4571 133.799 16.9749 133.35C17.8233 132.613 19.4736 132.077 21.0062 131.573C23.5608 130.734 26.8383 130.574 29.3428 131.864C35.8031 135.192 37.7543 137.439 49.1867 138.366C65.0758 139.654 81.1135 131.49 84.3333 129.462C91.2651 125.096 101.132 116.188 99.9816 100.977C98.9743 87.6581 85.7697 77.7983 70.488 78.954C55.2067 80.1098 43.6352 91.8434 44.6425 105.162Z"
        fill="#F9F1DA"/>
      <mask id="mask3" maskUnits="userSpaceOnUse" x="12" y="76" width="91" height="66">
        <path
          d="M44.6425 105.162C45.0537 110.6 47.6645 125.128 41.2876 127.666C35.346 130.031 31.9702 128.362 30.1619 128.182C25.9153 127.758 21.0256 129.279 18.4159 131.35C16.9655 132.5 16.4571 133.799 16.9749 133.35C17.8233 132.613 19.4736 132.077 21.0062 131.573C23.5608 130.734 26.8383 130.574 29.3428 131.864C35.8031 135.192 37.7543 137.439 49.1867 138.366C65.0758 139.654 81.1135 131.49 84.3333 129.462C91.2651 125.096 101.132 116.188 99.9816 100.977C98.9743 87.6581 85.7697 77.7983 70.488 78.954C55.2067 80.1098 43.6352 91.8434 44.6425 105.162Z"
          fill="#F9F1DA"/>
      </mask>
      <g mask="url(#mask3)">
        <path
          d="M43.4262 139.494C41.2475 139.559 10.9969 137.43 11.9725 135.508C15.5246 128.512 43.8933 114.512 43.2172 105.572C42.187 91.9521 54.0377 79.9162 69.801 78.415C63.2434 87.7349 54.9102 116.343 60.9284 139.37C60.2006 139.315 55.6155 140.721 55.0206 141.218C52.514 143.315 49.2086 139.326 43.4262 139.494Z"
          fill="#F0E4C0"/>
      </g>
      <path
        d="M119.445 50.2482C108.164 40.5535 86.6112 35.9822 62.7158 37.7894C47.0727 38.9725 35.3504 52.6127 36.5335 68.256C37.7166 83.8991 51.357 95.6204 67.0001 94.4373C84.284 93.1302 110.343 94.2023 121.764 80.9126C129.591 71.8039 128.552 58.0751 119.445 50.2482L119.445 50.2482Z"
        fill="#F9F1DA"/>
      <path
        d="M47.5945 43.5467C40.2289 49.1877 35.7687 58.3171 36.5205 68.2583C37.7036 83.9014 51.344 95.6227 66.9871 94.4396C78.6394 93.5583 94.2793 93.7577 106.734 89.9095C44.5757 99.0281 40.8514 61.6236 47.5945 43.5467Z"
        fill="#F5EBCD"/>
      <path
        d="M62.7126 58.1276C63.7361 58.0502 64.5017 57.158 64.4244 56.1357L64.2065 53.2538C64.1291 52.2303 63.238 51.4646 62.2146 51.542C61.1924 51.6193 60.4254 52.5104 60.5028 53.5339L60.7208 56.4158C60.7981 57.439 61.6904 58.2049 62.7126 58.1276Z"
        fill="#495059"/>
      <path
        d="M97.4341 55.5017C98.4563 55.4243 99.2232 54.532 99.1459 53.5098L98.9279 50.6278C98.8505 49.6044 97.9582 48.8387 96.936 48.916C95.9125 48.9934 95.1468 49.8845 95.2242 50.9079L95.4422 53.7899C95.5195 54.8131 96.4106 55.5791 97.4341 55.5017Z"
        fill="#495059"/>
      <path
        d="M82.0892 46.4598C79.5882 47.2004 76.924 47.1786 74.4361 46.397C71.9482 45.6154 69.7494 44.1094 68.1199 42.0712C67.5803 41.3951 67.2521 40.5744 67.1763 39.712C67.1006 38.8496 67.2807 37.984 67.6942 37.2235L79.8345 14.9028C80.3173 14.0147 81.0929 13.3218 82.029 12.9425C82.965 12.5633 84.0034 12.5212 84.9667 12.8235C85.93 13.1258 86.7585 13.7537 87.3106 14.6C87.8628 15.4463 88.1044 16.4584 87.9941 17.4634L85.2046 42.7233C85.1108 43.5842 84.765 44.3982 84.2107 45.063C83.6564 45.7278 82.9183 46.2138 82.0892 46.4598Z"
        fill="#00D6FF"/>
      <mask id="mask4" maskUnits="userSpaceOnUse" x="66" y="10" width="24" height="38">
        <path
          d="M82.0892 46.4598C79.5882 47.2004 76.924 47.1786 74.4361 46.397C71.9482 45.6154 69.7494 44.1094 68.1199 42.0712C67.5803 41.3951 67.2521 40.5744 67.1763 39.712C67.1006 38.8496 67.2807 37.984 67.6942 37.2235L79.8345 14.9028C80.3173 14.0147 81.0929 13.3218 82.029 12.9425C82.965 12.5633 84.0034 12.5212 84.9667 12.8235C85.93 13.1258 86.7585 13.7537 87.3106 14.6C87.8628 15.4463 88.1044 16.4584 87.9941 17.4634L85.2046 42.7233C85.1108 43.5842 84.765 44.3982 84.2107 45.063C83.6564 45.7278 82.9183 46.2138 82.0892 46.4598Z"
          fill="#00D6FF"/>
      </mask>
      <g mask="url(#mask4)">
        <path
          d="M86.6489 10.8528C83.4678 10.0092 80.096 10.9182 78.6117 13.0192L70.9354 23.9065C76.1028 24.3703 82.8416 24.1213 91.1549 21.7983L91.7121 16.4805C91.9504 14.0522 89.8349 11.697 86.6489 10.8528Z"
          fill="#FF6862"/>
        <path
          d="M69.7928 24.4369L78.0996 12.6557C79.7239 10.3549 83.3881 9.33959 86.8095 10.2424C90.287 11.1627 92.607 13.8133 92.3171 16.5392L91.7258 22.2937L91.3135 22.4072C84.1906 24.3962 77.3121 25.1138 70.8684 24.5367L69.7928 24.4369ZM85.3728 11.2416C82.8014 10.9061 80.2914 11.7297 79.1266 13.3804L72.0793 23.3661C77.9307 23.7493 84.1423 23.0587 90.576 21.3069L91.08 16.4158C91.297 14.3066 89.3665 12.2216 86.491 11.461C86.1235 11.3634 85.75 11.2901 85.3728 11.2416V11.2416Z"
          fill="white"/>
        <path
          d="M86.9034 43.9439L87.9138 34.5904C77.2894 39.3553 69.5923 39.0128 64.7286 38.0257C64.3882 38.8402 64.2902 39.7358 64.4464 40.6046C64.6025 41.4734 65.0062 42.2784 65.6087 42.9225C69.8275 47.649 76.7339 49.686 83.0812 48.0725C85.185 47.5483 86.6913 45.9193 86.9034 43.9439Z"
          fill="#0083D7"/>
        <path
          d="M76.2403 49.1018C71.972 48.5717 68.0348 46.529 65.141 43.3433C64.4597 42.6095 64.004 41.6946 63.8284 40.7081C63.6527 39.7216 63.7645 38.7052 64.1503 37.7804L64.3523 37.2997L64.8456 37.3995C71.8053 38.8147 79.4784 37.6734 87.6503 34.0084L88.6477 33.563L87.5211 44.0017C87.2797 46.2395 85.5948 48.0734 83.2302 48.6751C80.9478 49.2575 78.5762 49.4023 76.2403 49.1018ZM65.1373 38.7535C64.9639 39.4082 64.9592 40.0963 65.1236 40.7532C65.2881 41.4101 65.6163 42.0144 66.0776 42.5096C70.164 47.0869 76.7782 49.0351 82.929 47.472C84.7803 47.0011 86.0944 45.6031 86.2784 43.8827L87.1727 35.6119C79.3324 38.9474 71.9332 40.0079 65.1373 38.7535V38.7535Z"
          fill="white"/>
      </g>
      <path
        d="M53.0837 42.7818C56.5515 47.8604 54.5586 51.0201 51.0674 53.4036C47.5762 55.7881 43.9074 56.4934 40.4397 51.4157C36.9729 46.337 35.2475 37.7336 38.7396 35.3489C42.2308 32.9654 49.617 37.704 53.0837 42.7818Z"
        fill="#F0E4C0"/>
      <path
        d="M66.1151 95.4857C61.3586 95.2075 56.3524 96.0629 51.6919 99.6099C49.311 101.421 48.8498 104.82 50.6609 107.2C52.473 109.581 55.8712 110.042 58.2512 108.23C62.351 105.111 67.6203 106.244 74.6166 108.185C76.513 108.712 78.3027 109.208 80.0572 109.541C82.9973 110.1 85.8307 108.169 86.3883 105.23C86.9469 102.291 85.0159 99.4562 82.0768 98.8988C80.7648 98.6495 79.1861 98.2114 77.5137 97.7472C74.1606 96.8166 70.2314 95.7264 66.1151 95.4857Z"
        fill="#F9F1DA"/>
      <path
        d="M99.4935 77.5171C99.2069 73.7275 101.298 70.48 104.163 70.2633C107.028 70.0466 109.583 72.9428 109.87 76.7324C110.156 80.522 108.066 83.7705 105.201 83.9872C102.336 84.2038 99.7801 81.3067 99.4935 77.5171Z"
        fill="#495059"/>
      <path
        d="M77.7686 97.8274C79.3351 98.262 80.8124 98.6652 82.0505 98.9005C84.9887 99.4578 86.9196 102.292 86.362 105.231C85.8034 108.17 82.971 110.102 80.0299 109.543C78.3654 109.227 76.666 108.763 74.8783 108.267L77.7686 97.8274Z"
        fill="#495059"/>
    </g>
  </mask>
  <g mask="url(#mask2)">
    <rect opacity="0.3" x="2.5354" y="3.38727" width="143" height="143" fill="#BBD1B5"/>
  </g>
  <defs>
    <filter id="filter0_d" x="0.562256" y="0.912415" width="138.282" height="150.392" filterUnits="userSpaceOnUse"
            color-interpolation-filters="sRGB">
      <feFlood flood-opacity="0" result="BackgroundImageFix"/>
      <feColorMatrix in="SourceAlpha" type="matrix" values="0 0 0 0 0 0 0 0 0 0 0 0 0 0 0 0 0 0 127 0"/>
      <feOffset/>
      <feGaussianBlur stdDeviation="5"/>
      <feColorMatrix type="matrix" values="0 0 0 0 0.45098 0 0 0 0 0.792157 0 0 0 0 0.619608 0 0 0 0.6 0"/>
      <feBlend mode="normal" in2="BackgroundImageFix" result="effect1_dropShadow"/>
      <feBlend mode="normal" in="SourceGraphic" in2="effect1_dropShadow" result="shape"/>
    </filter>
    <clipPath id="clip0">
      <rect width="125" height="125" fill="white"
            transform="matrix(-0.997152 0.0754149 0.0754149 0.997152 127.644 7.85181)"/>
    </clipPath>
  </defs>
</svg>
